<svg width="75" height="91" viewBox="0 0 75 91" fill="none" xmlns="http://www.w3.org/2000/svg">
<path d="M11.11 71.54H14.03V86H11.4L4.53 76.05V86H1.62V71.54H4.51L11.11 81.11V71.54ZM19.8555 86.2C18.8621 86.2 18.0321 85.9267 17.3655 85.38C16.6988 84.8333 16.3655 84.0533 16.3655 83.04C16.3655 81.9067 16.7855 81.0467 17.6255 80.46C18.4721 79.8667 19.8121 79.56 21.6455 79.54L22.9355 79.52V78.9C22.9355 78.4267 22.7955 78.0633 22.5155 77.81C22.2421 77.55 21.8155 77.4233 21.2355 77.43C20.8088 77.4367 20.4021 77.5367 20.0155 77.73C19.6355 77.9233 19.3755 78.26 19.2355 78.74H16.8055C16.8588 77.62 17.3088 76.7933 18.1555 76.26C19.0021 75.7267 20.0721 75.46 21.3655 75.46C22.9521 75.46 24.0755 75.7533 24.7355 76.34C25.4021 76.92 25.7355 77.7167 25.7355 78.73V86H23.2955L23.0555 84.22C22.7021 84.9667 22.2588 85.4833 21.7255 85.77C21.1988 86.0567 20.5755 86.2 19.8555 86.2ZM20.8355 84.28C21.1888 84.28 21.5255 84.2 21.8455 84.04C22.1655 83.8733 22.4255 83.66 22.6255 83.4C22.8321 83.1333 22.9355 82.85 22.9355 82.55V81.02L21.8855 81.04C21.3988 81.0467 20.9455 81.1033 20.5255 81.21C20.1055 81.3167 19.7655 81.4967 19.5055 81.75C19.2521 81.9967 19.1255 82.33 19.1255 82.75C19.1255 83.23 19.2888 83.6067 19.6155 83.88C19.9488 84.1467 20.3555 84.28 20.8355 84.28ZM33.1103 89.42C31.2703 89.42 29.8703 89.1867 28.9103 88.72C27.957 88.2533 27.4803 87.64 27.4803 86.88C27.4803 86.5267 27.5736 86.2333 27.7603 86C27.947 85.76 28.1636 85.5667 28.4103 85.42C28.6636 85.2733 28.8936 85.1633 29.1003 85.09C29.3136 85.01 29.4436 84.9567 29.4903 84.93C29.3836 84.87 29.227 84.7833 29.0203 84.67C28.8203 84.55 28.637 84.39 28.4703 84.19C28.3036 83.9833 28.2203 83.7167 28.2203 83.39C28.2203 83.0233 28.3936 82.6867 28.7403 82.38C29.0936 82.0667 29.627 81.8467 30.3403 81.72C29.6536 81.4067 29.1336 80.9767 28.7803 80.43C28.4336 79.8767 28.2603 79.3133 28.2603 78.74C28.2603 78.06 28.4703 77.48 28.8903 77C29.317 76.5133 29.9003 76.1433 30.6403 75.89C31.3803 75.63 32.217 75.5 33.1503 75.5C33.8636 75.5 34.447 75.5767 34.9003 75.73C35.3536 75.8767 35.7736 76.07 36.1603 76.31C36.367 76.23 36.6536 76.1167 37.0203 75.97C37.3936 75.8233 37.777 75.67 38.1703 75.51C38.5703 75.35 38.9136 75.21 39.2003 75.09L39.1903 77.35L37.4003 77.64C37.4736 77.8267 37.5303 78.0233 37.5703 78.23C37.6103 78.43 37.6303 78.5967 37.6303 78.73C37.6303 79.33 37.4536 79.89 37.1003 80.41C36.747 80.93 36.2236 81.35 35.5303 81.67C34.837 81.99 33.977 82.15 32.9503 82.15C32.8236 82.15 32.6536 82.1467 32.4403 82.14C32.227 82.1333 32.057 82.1233 31.9303 82.11C31.537 82.13 31.267 82.18 31.1203 82.26C30.9736 82.34 30.9003 82.4333 30.9003 82.54C30.9003 82.7 31.047 82.8067 31.3403 82.86C31.6403 82.9133 32.097 82.9567 32.7103 82.99C32.9236 83.0033 33.2203 83.0233 33.6003 83.05C33.9803 83.07 34.4003 83.0933 34.8603 83.12C36.1203 83.2067 37.0636 83.52 37.6903 84.06C38.317 84.5933 38.6303 85.2667 38.6303 86.08C38.6303 87.0533 38.1703 87.8533 37.2503 88.48C36.337 89.1067 34.957 89.42 33.1103 89.42ZM33.0303 80.52C33.5836 80.52 34.027 80.37 34.3603 80.07C34.7003 79.77 34.8703 79.3567 34.8703 78.83C34.8703 78.29 34.7003 77.8567 34.3603 77.53C34.027 77.2033 33.5836 77.04 33.0303 77.04C32.477 77.04 32.0303 77.2067 31.6903 77.54C31.3503 77.8667 31.1803 78.2967 31.1803 78.83C31.1803 79.3433 31.3436 79.7533 31.6703 80.06C32.0036 80.3667 32.457 80.52 33.0303 80.52ZM33.5803 87.79C34.3936 87.79 34.9736 87.69 35.3203 87.49C35.667 87.29 35.8403 87.0033 35.8403 86.63C35.8403 86.3167 35.707 86.0633 35.4403 85.87C35.1736 85.67 34.7836 85.5533 34.2703 85.52L31.9003 85.36C31.4336 85.3333 31.057 85.4433 30.7703 85.69C30.4836 85.9367 30.3403 86.22 30.3403 86.54C30.3403 86.9733 30.6036 87.29 31.1303 87.49C31.657 87.69 32.4736 87.79 33.5803 87.79ZM43.5859 86.2C42.5926 86.2 41.7626 85.9267 41.0959 85.38C40.4293 84.8333 40.0959 84.0533 40.0959 83.04C40.0959 81.9067 40.5159 81.0467 41.3559 80.46C42.2026 79.8667 43.5426 79.56 45.3759 79.54L46.6659 79.52V78.9C46.6659 78.4267 46.5259 78.0633 46.2459 77.81C45.9726 77.55 45.5459 77.4233 44.9659 77.43C44.5393 77.4367 44.1326 77.5367 43.7459 77.73C43.3659 77.9233 43.1059 78.26 42.9659 78.74H40.5359C40.5893 77.62 41.0393 76.7933 41.8859 76.26C42.7326 75.7267 43.8026 75.46 45.0959 75.46C46.6826 75.46 47.8059 75.7533 48.4659 76.34C49.1326 76.92 49.4659 77.7167 49.4659 78.73V86H47.0259L46.7859 84.22C46.4326 84.9667 45.9893 85.4833 45.4559 85.77C44.9293 86.0567 44.3059 86.2 43.5859 86.2ZM44.5659 84.28C44.9193 84.28 45.2559 84.2 45.5759 84.04C45.8959 83.8733 46.1559 83.66 46.3559 83.4C46.5626 83.1333 46.6659 82.85 46.6659 82.55V81.02L45.6159 81.04C45.1293 81.0467 44.6759 81.1033 44.2559 81.21C43.8359 81.3167 43.4959 81.4967 43.2359 81.75C42.9826 81.9967 42.8559 82.33 42.8559 82.75C42.8559 83.23 43.0193 83.6067 43.3459 83.88C43.6793 84.1467 44.0859 84.28 44.5659 84.28ZM52.0508 86V75.66H54.9208V77.12C55.1608 76.7467 55.5174 76.3967 55.9908 76.07C56.4641 75.7367 57.1074 75.57 57.9208 75.57C58.5541 75.57 59.1441 75.6933 59.6908 75.94C60.2441 76.1867 60.6908 76.5767 61.0308 77.11C61.3708 77.6367 61.5408 78.3267 61.5408 79.18V86H58.6208V79.54C58.6208 78.98 58.4508 78.56 58.1108 78.28C57.7774 78 57.3741 77.86 56.9008 77.86C56.4208 77.86 55.9774 77.9867 55.5708 78.24C55.1708 78.4933 54.9708 78.8733 54.9708 79.38V86H52.0508ZM68.3463 86.2C67.3329 86.2 66.4496 85.9833 65.6963 85.55C64.9496 85.1167 64.3696 84.5033 63.9563 83.71C63.5496 82.9167 63.3463 81.9767 63.3463 80.89C63.3463 79.8033 63.5496 78.8533 63.9563 78.04C64.3696 77.2267 64.9496 76.5933 65.6963 76.14C66.4496 75.6867 67.3363 75.46 68.3563 75.46C69.3763 75.46 70.2596 75.6833 71.0063 76.13C71.7529 76.5767 72.3296 77.2067 72.7363 78.02C73.1429 78.8267 73.3463 79.7833 73.3463 80.89C73.3463 81.93 73.1463 82.85 72.7463 83.65C72.3529 84.4433 71.7829 85.0667 71.0363 85.52C70.2963 85.9733 69.3996 86.2 68.3463 86.2ZM68.3563 84.03C68.8696 84.03 69.2829 83.88 69.5963 83.58C69.9096 83.28 70.1363 82.8867 70.2763 82.4C70.4229 81.9067 70.4963 81.37 70.4963 80.79C70.4963 80.2433 70.4296 79.73 70.2963 79.25C70.1629 78.7633 69.9396 78.37 69.6263 78.07C69.3196 77.7633 68.8963 77.61 68.3563 77.61C67.8429 77.61 67.4263 77.7533 67.1063 78.04C66.7929 78.3267 66.5629 78.71 66.4163 79.19C66.2696 79.67 66.1963 80.2033 66.1963 80.79C66.1963 81.33 66.2629 81.85 66.3963 82.35C66.5296 82.8433 66.7529 83.2467 67.0663 83.56C67.3796 83.8733 67.8096 84.03 68.3563 84.03Z" fill="#1BD3EB"/>
<path d="M11.11 71.54V71.04H10.61V71.54H11.11ZM14.03 71.54H14.53V71.04H14.03V71.54ZM14.03 86V86.5H14.53V86H14.03ZM11.4 86L10.9885 86.2841L11.1376 86.5H11.4V86ZM4.53 76.05L4.94145 75.7659L4.03 74.4458V76.05H4.53ZM4.53 86V86.5H5.03V86H4.53ZM1.62 86H1.12V86.5H1.62V86ZM1.62 71.54V71.04H1.12V71.54H1.62ZM4.51 71.54L4.92161 71.2561L4.77255 71.04H4.51V71.54ZM11.11 81.11L10.6984 81.3939L11.61 82.7157V81.11H11.11ZM11.11 72.04H14.03V71.04H11.11V72.04ZM13.53 71.54V86H14.53V71.54H13.53ZM14.03 85.5H11.4V86.5H14.03V85.5ZM11.8115 85.7159L4.94145 75.7659L4.11855 76.3341L10.9885 86.2841L11.8115 85.7159ZM4.03 76.05V86H5.03V76.05H4.03ZM4.53 85.5H1.62V86.5H4.53V85.5ZM2.12 86V71.54H1.12V86H2.12ZM1.62 72.04H4.51V71.04H1.62V72.04ZM4.09839 71.8239L10.6984 81.3939L11.5216 80.8261L4.92161 71.2561L4.09839 71.8239ZM11.61 81.11V71.54H10.61V81.11H11.61ZM17.3655 85.38L17.0484 85.7666L17.3655 85.38ZM17.6255 80.46L17.9118 80.8699L17.9124 80.8695L17.6255 80.46ZM21.6455 79.54L21.6509 80.04L21.6532 80.0399L21.6455 79.54ZM22.9355 79.52L22.9432 80.0199L23.4355 80.0123V79.52H22.9355ZM22.5155 77.81L22.1708 78.1724L22.18 78.1808L22.5155 77.81ZM21.2355 77.43L21.2297 76.93L21.2277 76.9301L21.2355 77.43ZM20.0155 77.73L19.7919 77.2828L19.7887 77.2844L20.0155 77.73ZM19.2355 78.74V79.24H19.6105L19.7155 78.88L19.2355 78.74ZM16.8055 78.74L16.306 78.7162L16.2811 79.24H16.8055V78.74ZM18.1555 76.26L18.422 76.6831L18.422 76.6831L18.1555 76.26ZM24.7355 76.34L24.4033 76.7137L24.4073 76.7172L24.7355 76.34ZM25.7355 86V86.5H26.2355V86H25.7355ZM23.2955 86L22.8 86.0668L22.8584 86.5H23.2955V86ZM23.0555 84.22L23.551 84.1532L23.3255 82.4805L22.6035 84.0061L23.0555 84.22ZM21.7255 85.77L21.4887 85.3296L21.4864 85.3308L21.7255 85.77ZM21.8455 84.04L22.0691 84.4873L22.0764 84.4835L21.8455 84.04ZM22.6255 83.4L22.2303 83.0937L22.2292 83.0951L22.6255 83.4ZM22.9355 81.02H23.4355V80.5104L22.9259 80.5201L22.9355 81.02ZM21.8855 81.04L21.8923 81.54L21.895 81.5399L21.8855 81.04ZM19.5055 81.75L19.8543 82.1082L19.8544 82.1081L19.5055 81.75ZM19.6155 83.88L19.2945 84.2636L19.3031 84.2704L19.6155 83.88ZM19.8555 85.7C18.9592 85.7 18.2464 85.4558 17.6825 84.9934L17.0484 85.7666C17.8178 86.3976 18.7651 86.7 19.8555 86.7V85.7ZM17.6825 84.9934C17.1525 84.5588 16.8655 83.9328 16.8655 83.04H15.8655C15.8655 84.1739 16.2451 85.1079 17.0484 85.7666L17.6825 84.9934ZM16.8655 83.04C16.8655 82.0498 17.2215 81.352 17.9118 80.8699L17.3392 80.0501C16.3495 80.7413 15.8655 81.7636 15.8655 83.04H16.8655ZM17.9124 80.8695C18.6342 80.3636 19.85 80.0596 21.6509 80.04L21.64 79.04C19.7742 79.0604 18.3101 79.3697 17.3385 80.0505L17.9124 80.8695ZM21.6532 80.0399L22.9432 80.0199L22.9277 79.0201L21.6377 79.0401L21.6532 80.0399ZM23.4355 79.52V78.9H22.4355V79.52H23.4355ZM23.4355 78.9C23.4355 78.3238 23.2611 77.8104 22.8509 77.4392L22.18 78.1808C22.3298 78.3163 22.4355 78.5295 22.4355 78.9H23.4355ZM22.8601 77.4477C22.4524 77.0599 21.8717 76.9227 21.2297 76.93L21.2412 77.93C21.7592 77.924 22.0319 78.0401 22.1709 78.1723L22.8601 77.4477ZM21.2277 76.9301C20.725 76.9379 20.2447 77.0564 19.7919 77.2828L20.2391 78.1772C20.5596 78.017 20.8926 77.9354 21.2433 77.9299L21.2277 76.9301ZM19.7887 77.2844C19.2644 77.5511 18.9268 78.0124 18.7555 78.6L19.7155 78.88C19.8241 78.5075 20.0065 78.2955 20.2422 78.1756L19.7887 77.2844ZM19.2355 78.24H16.8055V79.24H19.2355V78.24ZM17.3049 78.7638C17.3516 77.7841 17.7318 77.1178 18.422 76.6831L17.889 75.8369C16.8858 76.4689 16.366 77.4559 16.306 78.7162L17.3049 78.7638ZM18.422 76.6831C19.1686 76.2127 20.1393 75.96 21.3655 75.96V74.96C20.005 74.96 18.8357 75.2406 17.889 75.8369L18.422 76.6831ZM21.3655 75.96C22.9174 75.96 23.8841 76.2522 24.4033 76.7137L25.0677 75.9663C24.2669 75.2545 22.9869 74.96 21.3655 74.96V75.96ZM24.4073 76.7172C24.9482 77.1878 25.2355 77.8378 25.2355 78.73H26.2355C26.2355 77.5956 25.8561 76.6522 25.0637 75.9628L24.4073 76.7172ZM25.2355 78.73V86H26.2355V78.73H25.2355ZM25.7355 85.5H23.2955V86.5H25.7355V85.5ZM23.791 85.9332L23.551 84.1532L22.56 84.2868L22.8 86.0668L23.791 85.9332ZM22.6035 84.0061C22.2795 84.6908 21.8991 85.109 21.4887 85.3296L21.9622 86.2104C22.6185 85.8576 23.1248 85.2425 23.5074 84.4339L22.6035 84.0061ZM21.4864 85.3308C21.0465 85.5703 20.5087 85.7 19.8555 85.7V86.7C20.6423 86.7 21.3511 86.543 21.9645 86.2092L21.4864 85.3308ZM20.8355 84.78C21.2674 84.78 21.6806 84.6815 22.0691 84.4872L21.6219 83.5928C21.3704 83.7185 21.1102 83.78 20.8355 83.78V84.78ZM22.0764 84.4835C22.4545 84.2866 22.7731 84.0281 23.0218 83.7049L22.2292 83.0951C22.0778 83.2919 21.8765 83.4601 21.6145 83.5965L22.0764 84.4835ZM23.0207 83.7063C23.2864 83.3635 23.4355 82.9746 23.4355 82.55H22.4355C22.4355 82.7254 22.3779 82.9032 22.2303 83.0937L23.0207 83.7063ZM23.4355 82.55V81.02H22.4355V82.55H23.4355ZM22.9259 80.5201L21.8759 80.5401L21.895 81.5399L22.945 81.5199L22.9259 80.5201ZM21.8786 80.54C21.3575 80.5472 20.8647 80.608 20.4024 80.7254L20.6485 81.6946C21.0262 81.5987 21.4401 81.5461 21.8923 81.54L21.8786 80.54ZM20.4024 80.7254C19.9138 80.8495 19.4906 81.0664 19.1565 81.3919L19.8544 82.1081C20.0403 81.9269 20.2971 81.7839 20.6485 81.6946L20.4024 80.7254ZM19.1567 81.3918C18.7887 81.75 18.6255 82.2224 18.6255 82.75H19.6255C19.6255 82.4376 19.7156 82.2433 19.8543 82.1082L19.1567 81.3918ZM18.6255 82.75C18.6255 83.3569 18.8391 83.8824 19.2946 84.2635L19.9363 83.4965C19.7385 83.331 19.6255 83.1031 19.6255 82.75H18.6255ZM19.3031 84.2704C19.7361 84.6168 20.2569 84.78 20.8355 84.78V83.78C20.4541 83.78 20.1615 83.6765 19.9278 83.4896L19.3031 84.2704ZM28.9103 88.72L28.6905 89.1691L28.6917 89.1697L28.9103 88.72ZM27.7603 86L28.1508 86.3124L28.155 86.307L27.7603 86ZM28.4103 85.42L28.1598 84.9873L28.1548 84.9902L28.4103 85.42ZM29.1003 85.09L29.2675 85.5613L29.2759 85.5582L29.1003 85.09ZM29.4903 84.93L29.7384 85.3641L30.5041 84.9266L29.7354 84.4942L29.4903 84.93ZM29.0203 84.67L28.7631 85.0987L28.7714 85.1037L28.7799 85.1084L29.0203 84.67ZM28.4703 84.19L28.0811 84.5039L28.0862 84.5101L28.4703 84.19ZM28.7403 82.38L29.0716 82.7545L29.0721 82.7541L28.7403 82.38ZM30.3403 81.72L30.4277 82.2123L32.0085 81.9316L30.5479 81.2651L30.3403 81.72ZM28.7803 80.43L28.3566 80.6955L28.3604 80.7014L28.7803 80.43ZM28.8903 77L28.5143 76.6704L28.514 76.6707L28.8903 77ZM30.6403 75.89L30.8023 76.3631L30.8061 76.3617L30.6403 75.89ZM34.9003 75.73L34.7401 76.2037L34.7464 76.2057L34.9003 75.73ZM36.1603 76.31L35.8966 76.7348L36.1084 76.8663L36.3408 76.7763L36.1603 76.31ZM37.0203 75.97L36.8375 75.5046L36.8346 75.5058L37.0203 75.97ZM38.1703 75.51L37.9846 75.0458L37.9819 75.0469L38.1703 75.51ZM39.2003 75.09L39.7003 75.0922L39.7036 74.3373L39.0072 74.6288L39.2003 75.09ZM39.1903 77.35L39.2703 77.8436L39.6884 77.7758L39.6903 77.3522L39.1903 77.35ZM37.4003 77.64L37.3203 77.1464L36.7082 77.2456L36.9349 77.8228L37.4003 77.64ZM37.5703 78.23L37.0794 78.325L37.08 78.3281L37.5703 78.23ZM37.1003 80.41L37.5139 80.691L37.5139 80.691L37.1003 80.41ZM35.5303 81.67L35.3208 81.216L35.3208 81.216L35.5303 81.67ZM32.4403 82.14L32.4247 82.6398L32.4247 82.6398L32.4403 82.14ZM31.9303 82.11L31.9827 81.6127L31.9439 81.6087L31.9049 81.6106L31.9303 82.11ZM31.1203 82.26L31.3597 82.6989L31.3597 82.6989L31.1203 82.26ZM31.3403 82.86L31.2509 83.3519L31.2528 83.3523L31.3403 82.86ZM32.7103 82.99L32.7415 82.491L32.7374 82.4907L32.7103 82.99ZM33.6003 83.05L33.5653 83.5488L33.574 83.5493L33.6003 83.05ZM34.8603 83.12L34.8946 82.6211L34.8892 82.6208L34.8603 83.12ZM37.6903 84.06L37.3639 84.4388L37.3663 84.4408L37.6903 84.06ZM37.2503 88.48L36.9688 88.0668L36.9674 88.0677L37.2503 88.48ZM34.3603 80.07L34.0295 79.6951L34.0258 79.6984L34.3603 80.07ZM34.3603 77.53L34.0103 77.8871L34.0139 77.8906L34.3603 77.53ZM31.6903 77.54L32.0367 77.9006L32.0403 77.897L31.6903 77.54ZM31.6703 80.06L31.3281 80.4246L31.3318 80.428L31.6703 80.06ZM35.4403 85.87L35.1403 86.2701L35.1468 86.2748L35.4403 85.87ZM34.2703 85.52L34.2366 86.0189L34.2379 86.0189L34.2703 85.52ZM31.9003 85.36L31.934 84.8611L31.9288 84.8608L31.9003 85.36ZM30.7703 85.69L30.4442 85.311L30.4442 85.311L30.7703 85.69ZM33.1103 88.92C31.2987 88.92 29.9882 88.688 29.1289 88.2703L28.6917 89.1697C29.7524 89.6853 31.2419 89.92 33.1103 89.92V88.92ZM29.1301 88.2709C28.2698 87.8498 27.9803 87.3751 27.9803 86.88H26.9803C26.9803 87.9049 27.6441 88.6569 28.6905 89.1691L29.1301 88.2709ZM27.9803 86.88C27.9803 86.6186 28.0474 86.4415 28.1507 86.3123L27.3699 85.6877C27.0999 86.0251 26.9803 86.4347 26.9803 86.88H27.9803ZM28.155 86.307C28.3056 86.1133 28.476 85.9627 28.6659 85.8498L28.1548 84.9902C27.8513 85.1707 27.5883 85.4067 27.3656 85.693L28.155 86.307ZM28.6608 85.8527C28.8958 85.7167 29.0975 85.6215 29.2675 85.5612L28.9331 84.6188C28.6898 84.7051 28.4315 84.83 28.1598 84.9873L28.6608 85.8527ZM29.2759 85.5582C29.4736 85.484 29.6486 85.4154 29.7384 85.3641L29.2422 84.4959C29.2509 84.491 29.2506 84.4917 29.2334 84.4995C29.2186 84.5062 29.1972 84.5154 29.168 84.5274C29.1097 84.5513 29.0292 84.5827 28.9248 84.6218L29.2759 85.5582ZM29.7354 84.4942C29.6264 84.4329 29.4678 84.3452 29.2607 84.2316L28.7799 85.1084C28.9861 85.2215 29.1409 85.3071 29.2452 85.3658L29.7354 84.4942ZM29.2776 84.2413C29.1309 84.1532 28.9893 84.0318 28.8544 83.8699L28.0862 84.5101C28.2846 84.7482 28.5097 84.9468 28.7631 85.0987L29.2776 84.2413ZM28.8595 83.8761C28.7799 83.7774 28.7203 83.6295 28.7203 83.39H27.7203C27.7203 83.8038 27.8274 84.1893 28.0811 84.5039L28.8595 83.8761ZM28.7203 83.39C28.7203 83.2025 28.802 82.993 29.0716 82.7545L28.409 82.0055C27.9853 82.3803 27.7203 82.8442 27.7203 83.39H28.7203ZM29.0721 82.7541C29.3289 82.5263 29.7605 82.3308 30.4277 82.2123L30.2529 81.2277C29.4935 81.3625 28.8584 81.607 28.4086 82.0059L29.0721 82.7541ZM30.5479 81.2651C29.9339 80.985 29.4939 80.6129 29.2002 80.1586L28.3604 80.7014C28.7734 81.3404 29.3734 81.8284 30.1327 82.1749L30.5479 81.2651ZM29.204 80.1645C28.9001 79.6795 28.7603 79.2069 28.7603 78.74H27.7603C27.7603 79.4197 27.9672 80.0739 28.3566 80.6955L29.204 80.1645ZM28.7603 78.74C28.7603 78.1724 28.9319 77.7118 29.2666 77.3293L28.514 76.6707C28.0087 77.2482 27.7603 77.9476 27.7603 78.74H28.7603ZM29.2663 77.3296C29.6245 76.9211 30.1277 76.594 30.8023 76.363L30.4784 75.417C29.6729 75.6927 29.0095 76.1056 28.5143 76.6704L29.2663 77.3296ZM30.8061 76.3617C31.4838 76.1236 32.263 76 33.1503 76V75C32.171 75 31.2769 75.1364 30.4746 75.4183L30.8061 76.3617ZM33.1503 76C33.8332 76 34.3571 76.0741 34.7401 76.2036L35.0605 75.2564C34.5369 75.0792 33.8941 75 33.1503 75V76ZM34.7464 76.2057C35.163 76.3405 35.5459 76.5171 35.8966 76.7348L36.424 75.8852C36.0014 75.6229 35.5443 75.4128 35.0542 75.2543L34.7464 76.2057ZM36.3408 76.7763C36.5501 76.6953 36.8387 76.5812 37.206 76.4342L36.8346 75.5058C36.4686 75.6522 36.1839 75.7647 35.9798 75.8437L36.3408 76.7763ZM37.2031 76.4354C37.5784 76.2879 37.9636 76.1339 38.3587 75.9731L37.9819 75.0469C37.5903 75.2061 37.2089 75.3587 36.8375 75.5046L37.2031 76.4354ZM38.356 75.9742C38.7576 75.8136 39.1035 75.6726 39.3934 75.5512L39.0072 74.6288C38.7238 74.7474 38.383 74.8864 37.9846 75.0458L38.356 75.9742ZM38.7003 75.0878L38.6903 77.3478L39.6903 77.3522L39.7003 75.0922L38.7003 75.0878ZM39.1103 76.8564L37.3203 77.1464L37.4803 78.1336L39.2703 77.8436L39.1103 76.8564ZM36.9349 77.8228C36.9966 77.9797 37.0449 78.1469 37.0794 78.325L38.0612 78.135C38.0157 77.8998 37.9507 77.6736 37.8657 77.4572L36.9349 77.8228ZM37.08 78.3281C37.1166 78.5108 37.1303 78.642 37.1303 78.73H38.1303C38.1303 78.5513 38.1041 78.3492 38.0606 78.1319L37.08 78.3281ZM37.1303 78.73C37.1303 79.2248 36.9866 79.6877 36.6868 80.129L37.5139 80.691C37.9207 80.0923 38.1303 79.4352 38.1303 78.73H37.1303ZM36.6868 80.129C36.3944 80.5592 35.9494 80.9259 35.3208 81.216L35.7398 82.124C36.4979 81.7741 37.0996 81.3008 37.5139 80.691L36.6868 80.129ZM35.3208 81.216C34.7117 81.4972 33.9283 81.65 32.9503 81.65V82.65C34.0257 82.65 34.9623 82.4828 35.7398 82.124L35.3208 81.216ZM32.9503 81.65C32.8312 81.65 32.6671 81.6468 32.4559 81.6402L32.4247 82.6398C32.6402 82.6465 32.8161 82.65 32.9503 82.65V81.65ZM32.4559 81.6402C32.2479 81.6337 32.0917 81.6242 31.9827 81.6127L31.878 82.6073C32.0222 82.6224 32.2061 82.6329 32.4247 82.6398L32.4559 81.6402ZM31.9049 81.6106C31.512 81.6306 31.1375 81.6811 30.8809 81.8211L31.3597 82.6989C31.3596 82.699 31.3627 82.6973 31.3702 82.6943C31.3775 82.6913 31.3881 82.6874 31.4024 82.6829C31.4313 82.6739 31.4712 82.6639 31.5239 82.6541C31.6301 82.6345 31.7725 82.6187 31.9557 82.6094L31.9049 81.6106ZM30.8809 81.8211C30.6717 81.9352 30.4003 82.1607 30.4003 82.54H31.4003C31.4003 82.572 31.3946 82.6044 31.3835 82.6346C31.3726 82.6642 31.3589 82.6856 31.3485 82.6989C31.3299 82.7226 31.3234 82.7188 31.3597 82.6989L30.8809 81.8211ZM30.4003 82.54C30.4003 82.803 30.5334 83.0114 30.7162 83.1444C30.8773 83.2615 31.0722 83.3194 31.2509 83.3519L31.4298 82.3681C31.377 82.3585 31.3412 82.3483 31.3187 82.3401C31.2956 82.3317 31.2941 82.3282 31.3044 82.3356C31.3159 82.344 31.3427 82.3668 31.3659 82.409C31.3903 82.4534 31.4003 82.5002 31.4003 82.54H30.4003ZM31.2528 83.3523C31.584 83.4112 32.0656 83.4557 32.6832 83.4893L32.7374 82.4907C32.1284 82.4576 31.6966 82.4155 31.4278 82.3677L31.2528 83.3523ZM32.6791 83.489C32.8906 83.5022 33.1858 83.5221 33.5653 83.5488L33.6353 82.5512C33.2549 82.5245 32.9567 82.5044 32.7415 82.491L32.6791 83.489ZM33.574 83.5493C33.953 83.5693 34.3721 83.5925 34.8314 83.6192L34.8892 82.6208C34.4285 82.5941 34.0076 82.5707 33.6266 82.5507L33.574 83.5493ZM34.826 83.6188C36.0318 83.7018 36.8521 83.9977 37.3639 84.4388L38.0167 83.6812C37.2752 83.0423 36.2088 82.7116 34.8946 82.6212L34.826 83.6188ZM37.3663 84.4408C37.8828 84.8804 38.1303 85.4152 38.1303 86.08H39.1303C39.1303 85.1181 38.7511 84.3063 38.0144 83.6792L37.3663 84.4408ZM38.1303 86.08C38.1303 86.8621 37.7749 87.5177 36.9688 88.0668L37.5318 88.8932C38.5657 88.189 39.1303 87.2446 39.1303 86.08H38.1303ZM36.9674 88.0677C36.1763 88.6105 34.9167 88.92 33.1103 88.92V89.92C34.9972 89.92 36.4976 89.6028 37.5332 88.8923L36.9674 88.0677ZM33.0303 81.02C33.677 81.02 34.2495 80.8424 34.6948 80.4416L34.0258 79.6984C33.8045 79.8975 33.4903 80.02 33.0303 80.02V81.02ZM34.6911 80.4449C35.1565 80.0343 35.3703 79.4746 35.3703 78.83H34.3703C34.3703 79.2388 34.2441 79.5057 34.0295 79.6951L34.6911 80.4449ZM35.3703 78.83C35.3703 78.1755 35.1594 77.6044 34.7067 77.1694L34.0139 77.8906C34.2412 78.109 34.3703 78.4045 34.3703 78.83H35.3703ZM34.7103 77.1729C34.2664 76.7379 33.6885 76.54 33.0303 76.54V77.54C33.4788 77.54 33.7875 77.6688 34.0103 77.8871L34.7103 77.1729ZM33.0303 76.54C32.369 76.54 31.7889 76.7431 31.3403 77.183L32.0403 77.897C32.2717 77.6702 32.585 77.54 33.0303 77.54V76.54ZM31.3439 77.1794C30.8925 77.6131 30.6803 78.1802 30.6803 78.83H31.6803C31.6803 78.4132 31.8081 78.1202 32.0367 77.9006L31.3439 77.1794ZM30.6803 78.83C30.6803 79.4594 30.8857 80.0092 31.3281 80.4245L32.0125 79.6955C31.8016 79.4974 31.6803 79.2273 31.6803 78.83H30.6803ZM31.3318 80.428C31.7801 80.8404 32.3662 81.02 33.0303 81.02V80.02C32.5478 80.02 32.2272 79.8929 32.0088 79.692L31.3318 80.428ZM33.5803 88.29C34.4081 88.29 35.1025 88.1929 35.5702 87.9231L35.0705 87.0569C34.8448 87.1871 34.3792 87.29 33.5803 87.29V88.29ZM35.5702 87.9231C36.058 87.6417 36.3403 87.1972 36.3403 86.63H35.3403C35.3403 86.8095 35.276 86.9383 35.0705 87.0569L35.5702 87.9231ZM36.3403 86.63C36.3403 86.147 36.1224 85.7469 35.7338 85.4652L35.1468 86.2748C35.2916 86.3798 35.3403 86.4863 35.3403 86.63H36.3403ZM35.7403 85.47C35.3644 85.1881 34.8642 85.0575 34.3027 85.0211L34.2379 86.0189C34.7031 86.0492 34.9829 86.1519 35.1403 86.27L35.7403 85.47ZM34.304 85.0211L31.934 84.8611L31.8666 85.8589L34.2366 86.0189L34.304 85.0211ZM31.9288 84.8608C31.365 84.8286 30.851 84.9609 30.4442 85.311L31.0964 86.069C31.2629 85.9257 31.5023 85.8381 31.8718 85.8592L31.9288 84.8608ZM30.4442 85.311C30.0693 85.6336 29.8403 86.0475 29.8403 86.54H30.8403C30.8403 86.3925 30.898 86.2397 31.0964 86.069L30.4442 85.311ZM29.8403 86.54C29.8403 86.8669 29.9429 87.1691 30.1534 87.4222C30.3567 87.6667 30.6373 87.8376 30.9528 87.9574L31.3078 87.0226C31.0967 86.9424 30.9822 86.8549 30.9223 86.7828C30.8694 86.7192 30.8403 86.6465 30.8403 86.54H29.8403ZM30.9528 87.9574C31.5678 88.191 32.4599 88.29 33.5803 88.29V87.29C32.4874 87.29 31.7462 87.189 31.3078 87.0226L30.9528 87.9574ZM41.0959 85.38L40.7789 85.7666L41.0959 85.38ZM41.3559 80.46L41.6422 80.8699L41.6429 80.8695L41.3559 80.46ZM45.3759 79.54L45.3814 80.04L45.3837 80.0399L45.3759 79.54ZM46.6659 79.52L46.6737 80.0199L47.1659 80.0123V79.52H46.6659ZM46.2459 77.81L45.9012 78.1724L45.9105 78.1808L46.2459 77.81ZM44.9659 77.43L44.9602 76.93L44.9581 76.9301L44.9659 77.43ZM43.7459 77.73L43.5223 77.2828L43.5192 77.2844L43.7459 77.73ZM42.9659 78.74V79.24H43.3409L43.4459 78.88L42.9659 78.74ZM40.5359 78.74L40.0365 78.7162L40.0116 79.24H40.5359V78.74ZM41.8859 76.26L42.1524 76.6831L42.1524 76.6831L41.8859 76.26ZM48.4659 76.34L48.1337 76.7137L48.1378 76.7172L48.4659 76.34ZM49.4659 86V86.5H49.9659V86H49.4659ZM47.0259 86L46.5304 86.0668L46.5888 86.5H47.0259V86ZM46.7859 84.22L47.2815 84.1532L47.0559 82.4805L46.334 84.0061L46.7859 84.22ZM45.4559 85.77L45.2192 85.3296L45.2169 85.3308L45.4559 85.77ZM45.5759 84.04L45.7996 84.4873L45.8069 84.4835L45.5759 84.04ZM46.3559 83.4L45.9607 83.0937L45.9596 83.0951L46.3559 83.4ZM46.6659 81.02H47.1659V80.5104L46.6564 80.5201L46.6659 81.02ZM45.6159 81.04L45.6228 81.54L45.6255 81.5399L45.6159 81.04ZM43.2359 81.75L43.5847 82.1082L43.5849 82.1081L43.2359 81.75ZM43.3459 83.88L43.025 84.2636L43.0336 84.2704L43.3459 83.88ZM43.5859 85.7C42.6897 85.7 41.9769 85.4558 41.413 84.9934L40.7789 85.7666C41.5483 86.3976 42.4955 86.7 43.5859 86.7V85.7ZM41.413 84.9934C40.883 84.5588 40.5959 83.9328 40.5959 83.04H39.5959C39.5959 84.1739 39.9755 85.1079 40.7789 85.7666L41.413 84.9934ZM40.5959 83.04C40.5959 82.0498 40.9519 81.352 41.6422 80.8699L41.0696 80.0501C40.0799 80.7413 39.5959 81.7636 39.5959 83.04H40.5959ZM41.6429 80.8695C42.3647 80.3636 43.5805 80.0596 45.3814 80.04L45.3705 79.04C43.5047 79.0604 42.0405 79.3697 41.069 80.0505L41.6429 80.8695ZM45.3837 80.0399L46.6737 80.0199L46.6582 79.0201L45.3682 79.0401L45.3837 80.0399ZM47.1659 79.52V78.9H46.1659V79.52H47.1659ZM47.1659 78.9C47.1659 78.3238 46.9916 77.8104 46.5814 77.4392L45.9105 78.1808C46.0603 78.3163 46.1659 78.5295 46.1659 78.9H47.1659ZM46.5905 77.4477C46.1828 77.0599 45.6022 76.9227 44.9602 76.93L44.9717 77.93C45.4897 77.924 45.7624 78.0401 45.9013 78.1723L46.5905 77.4477ZM44.9581 76.9301C44.4555 76.9379 43.9752 77.0564 43.5223 77.2828L43.9695 78.1772C44.2901 78.017 44.6231 77.9354 44.9737 77.9299L44.9581 76.9301ZM43.5192 77.2844C42.9949 77.5511 42.6573 78.0124 42.4859 78.6L43.4459 78.88C43.5546 78.5075 43.737 78.2955 43.9727 78.1756L43.5192 77.2844ZM42.9659 78.24H40.5359V79.24H42.9659V78.24ZM41.0354 78.7638C41.082 77.7841 41.4623 77.1178 42.1524 76.6831L41.6194 75.8369C40.6163 76.4689 40.0965 77.4559 40.0365 78.7162L41.0354 78.7638ZM42.1524 76.6831C42.8991 76.2127 43.8697 75.96 45.0959 75.96V74.96C43.7355 74.96 42.5661 75.2406 41.6194 75.8369L42.1524 76.6831ZM45.0959 75.96C46.6479 75.96 47.6145 76.2522 48.1338 76.7137L48.7981 75.9663C47.9973 75.2545 46.7173 74.96 45.0959 74.96V75.96ZM48.1378 76.7172C48.6787 77.1878 48.9659 77.8378 48.9659 78.73H49.9659C49.9659 77.5956 49.5866 76.6522 48.7941 75.9628L48.1378 76.7172ZM48.9659 78.73V86H49.9659V78.73H48.9659ZM49.4659 85.5H47.0259V86.5H49.4659V85.5ZM47.5215 85.9332L47.2815 84.1532L46.2904 84.2868L46.5304 86.0668L47.5215 85.9332ZM46.334 84.0061C46.01 84.6908 45.6296 85.109 45.2192 85.3296L45.6927 86.2104C46.349 85.8576 46.8552 85.2425 47.2379 84.4339L46.334 84.0061ZM45.2169 85.3308C44.777 85.5703 44.2391 85.7 43.5859 85.7V86.7C44.3728 86.7 45.0816 86.543 45.695 86.2092L45.2169 85.3308ZM44.5659 84.78C44.9979 84.78 45.411 84.6815 45.7995 84.4872L45.3523 83.5928C45.1009 83.7185 44.8406 83.78 44.5659 83.78V84.78ZM45.8069 84.4835C46.1849 84.2866 46.5036 84.0281 46.7522 83.7049L45.9596 83.0951C45.8083 83.2919 45.6069 83.4601 45.345 83.5965L45.8069 84.4835ZM46.7511 83.7063C47.0168 83.3635 47.1659 82.9746 47.1659 82.55H46.1659C46.1659 82.7254 46.1084 82.9032 45.9607 83.0937L46.7511 83.7063ZM47.1659 82.55V81.02H46.1659V82.55H47.1659ZM46.6564 80.5201L45.6064 80.5401L45.6255 81.5399L46.6755 81.5199L46.6564 80.5201ZM45.6091 80.54C45.0879 80.5472 44.5952 80.608 44.1329 80.7254L44.379 81.6946C44.7567 81.5987 45.1706 81.5461 45.6228 81.54L45.6091 80.54ZM44.1329 80.7254C43.6443 80.8495 43.2211 81.0664 42.887 81.3919L43.5849 82.1081C43.7708 81.9269 44.0276 81.7839 44.379 81.6946L44.1329 80.7254ZM42.8871 81.3918C42.5192 81.75 42.3559 82.2224 42.3559 82.75H43.3559C43.3559 82.4376 43.446 82.2433 43.5847 82.1082L42.8871 81.3918ZM42.3559 82.75C42.3559 83.3569 42.5696 83.8824 43.0251 84.2635L43.6668 83.4965C43.4689 83.331 43.3559 83.1031 43.3559 82.75H42.3559ZM43.0336 84.2704C43.4666 84.6168 43.9873 84.78 44.5659 84.78V83.78C44.1845 83.78 43.892 83.6765 43.6583 83.4896L43.0336 84.2704ZM52.0508 86H51.5508V86.5H52.0508V86ZM52.0508 75.66V75.16H51.5508V75.66H52.0508ZM54.9208 75.66H55.4208V75.16H54.9208V75.66ZM54.9208 77.12H54.4208V78.8224L55.3414 77.3904L54.9208 77.12ZM55.9908 76.07L56.2748 76.4815L56.2787 76.4788L55.9908 76.07ZM59.6908 75.94L59.4851 76.3958L59.4872 76.3967L59.6908 75.94ZM61.0308 77.11L60.6092 77.3788L60.6107 77.3812L61.0308 77.11ZM61.5408 86V86.5H62.0408V86H61.5408ZM58.6208 86H58.1208V86.5H58.6208V86ZM58.1108 78.28L57.7892 78.6629L57.7929 78.666L58.1108 78.28ZM55.5708 78.24L55.3064 77.8156L55.3033 77.8176L55.5708 78.24ZM54.9708 86V86.5H55.4708V86H54.9708ZM52.5508 86V75.66H51.5508V86H52.5508ZM52.0508 76.16H54.9208V75.16H52.0508V76.16ZM54.4208 75.66V77.12H55.4208V75.66H54.4208ZM55.3414 77.3904C55.5367 77.0865 55.8405 76.7812 56.2748 76.4815L55.7068 75.6585C55.1944 76.0121 54.7848 76.4069 54.5002 76.8496L55.3414 77.3904ZM56.2787 76.4788C56.6398 76.2245 57.1701 76.07 57.9208 76.07V75.07C57.0448 75.07 56.2884 75.2489 55.7029 75.6612L56.2787 76.4788ZM57.9208 76.07C58.4873 76.07 59.0067 76.1799 59.4851 76.3958L59.8964 75.4842C59.2815 75.2068 58.621 75.07 57.9208 75.07V76.07ZM59.4872 76.3967C59.9469 76.6016 60.3194 76.9243 60.6092 77.3788L61.4524 76.8412C61.0622 76.2291 60.5413 75.7717 59.8944 75.4833L59.4872 76.3967ZM60.6107 77.3812C60.8829 77.8027 61.0408 78.3892 61.0408 79.18H62.0408C62.0408 78.2642 61.8587 77.4706 61.4509 76.8388L60.6107 77.3812ZM61.0408 79.18V86H62.0408V79.18H61.0408ZM61.5408 85.5H58.6208V86.5H61.5408V85.5ZM59.1208 86V79.54H58.1208V86H59.1208ZM59.1208 79.54C59.1208 78.8746 58.9141 78.2938 58.4286 77.894L57.7929 78.666C57.9875 78.8262 58.1208 79.0854 58.1208 79.54H59.1208ZM58.4324 77.8971C58.0009 77.5347 57.4807 77.36 56.9008 77.36V78.36C57.2675 78.36 57.554 78.4653 57.7892 78.6629L58.4324 77.8971ZM56.9008 77.36C56.3275 77.36 55.7926 77.5128 55.3064 77.8156L55.8352 78.6644C56.1623 78.4606 56.5141 78.36 56.9008 78.36V77.36ZM55.3033 77.8176C54.7467 78.1701 54.4708 78.7164 54.4708 79.38H55.4708C55.4708 79.0302 55.5948 78.8166 55.8383 78.6624L55.3033 77.8176ZM54.4708 79.38V86H55.4708V79.38H54.4708ZM54.9708 85.5H52.0508V86.5H54.9708V85.5ZM65.6963 85.55L65.4453 85.9825L65.4469 85.9834L65.6963 85.55ZM63.9563 83.71L63.5113 83.9381L63.5128 83.941L63.9563 83.71ZM63.9563 78.04L63.5105 77.8135L63.509 77.8164L63.9563 78.04ZM65.6963 76.14L65.4384 75.7116L65.4368 75.7126L65.6963 76.14ZM71.0063 76.13L71.2629 75.7009L71.2629 75.7009L71.0063 76.13ZM72.7363 78.02L72.289 78.2436L72.2898 78.2451L72.7363 78.02ZM72.7463 83.65L72.299 83.4264L72.2983 83.4279L72.7463 83.65ZM71.0363 85.52L70.7768 85.0926L70.7751 85.0936L71.0363 85.52ZM69.5963 83.58L69.2505 83.2188L69.2505 83.2188L69.5963 83.58ZM70.2763 82.4L69.797 82.2575L69.7957 82.2618L70.2763 82.4ZM70.2963 79.25L69.814 79.3821L69.8145 79.3838L70.2963 79.25ZM69.6263 78.07L69.2726 78.4236L69.2805 78.4312L69.6263 78.07ZM67.1063 78.04L66.7726 77.6676L66.7687 77.6711L67.1063 78.04ZM66.4163 79.19L65.9381 79.0439L65.9381 79.0439L66.4163 79.19ZM66.3963 82.35L65.9131 82.4788L65.9136 82.4805L66.3963 82.35ZM67.0663 83.56L66.7127 83.9136L66.7127 83.9136L67.0663 83.56ZM68.3463 85.7C67.4058 85.7 66.6113 85.4995 65.9456 85.1166L65.4469 85.9834C66.2879 86.4671 67.2601 86.7 68.3463 86.7V85.7ZM65.9472 85.1176C65.2856 84.7336 64.7709 84.1915 64.3997 83.479L63.5128 83.941C63.9683 84.8152 64.6136 85.4998 65.4453 85.9824L65.9472 85.1176ZM64.4012 83.4819C64.0378 82.773 63.8463 81.9145 63.8463 80.89H62.8463C62.8463 82.0389 63.0614 83.0604 63.5113 83.9381L64.4012 83.4819ZM63.8463 80.89C63.8463 79.866 64.0376 78.9952 64.4035 78.2636L63.509 77.8164C63.0615 78.7114 62.8463 79.7407 62.8463 80.89H63.8463ZM64.402 78.2665C64.7751 77.5323 65.2923 76.9702 65.9557 76.5674L65.4368 75.7126C64.6069 76.2165 63.964 76.921 63.5105 77.8135L64.402 78.2665ZM65.9541 76.5684C66.6178 76.169 67.4123 75.96 68.3563 75.96V74.96C67.2602 74.96 66.2814 75.2043 65.4384 75.7116L65.9541 76.5684ZM68.3563 75.96C69.3016 75.96 70.093 76.1663 70.7496 76.5591L71.2629 75.7009C70.4262 75.2004 69.4509 74.96 68.3563 74.96V75.96ZM70.7496 76.5591C71.4106 76.9545 71.923 77.5115 72.289 78.2436L73.1835 77.7964C72.7362 76.9019 72.0952 76.1988 71.2629 75.7009L70.7496 76.5591ZM72.2898 78.2451C72.6542 78.968 72.8463 79.8442 72.8463 80.89H73.8463C73.8463 79.7225 73.6316 78.6854 73.1827 77.7949L72.2898 78.2451ZM72.8463 80.89C72.8463 81.865 72.6591 82.7063 72.299 83.4264L73.1935 83.8736C73.6334 82.9937 73.8463 81.995 73.8463 80.89H72.8463ZM72.2983 83.4279C71.9464 84.1376 71.4412 84.6892 70.7768 85.0926L71.2957 85.9474C72.1246 85.4442 72.7594 84.7491 73.1942 83.8721L72.2983 83.4279ZM70.7751 85.0936C70.129 85.4894 69.3272 85.7 68.3463 85.7V86.7C69.472 86.7 70.4635 86.4572 71.2974 85.9464L70.7751 85.0936ZM68.3563 84.53C68.9732 84.53 69.5189 84.3463 69.942 83.9412L69.2505 83.2188C69.047 83.4137 68.766 83.53 68.3563 83.53V84.53ZM69.942 83.9412C70.3292 83.5705 70.5965 83.0954 70.7568 82.5382L69.7957 82.2618C69.676 82.6779 69.49 82.9895 69.2505 83.2188L69.942 83.9412ZM70.7555 82.5425C70.9176 81.9975 70.9963 81.4122 70.9963 80.79H69.9963C69.9963 81.3278 69.9283 81.8159 69.797 82.2575L70.7555 82.5425ZM70.9963 80.79C70.9963 80.2025 70.9246 79.6438 70.778 79.1162L69.8145 79.3838C69.9346 79.8162 69.9963 80.2842 69.9963 80.79H70.9963ZM70.7785 79.1179C70.6252 78.5584 70.3608 78.081 69.972 77.7088L69.2805 78.4312C69.5184 78.659 69.7006 78.9683 69.814 79.3821L70.7785 79.1179ZM69.9798 77.7164C69.5576 77.2942 68.9945 77.11 68.3563 77.11V78.11C68.798 78.11 69.0816 78.2324 69.2727 78.4236L69.9798 77.7164ZM68.3563 77.11C67.7451 77.11 67.2016 77.2833 66.7726 77.6676L67.4399 78.4124C67.6509 78.2233 67.9407 78.11 68.3563 78.11V77.11ZM66.7687 77.6711C66.3783 78.0283 66.1061 78.4941 65.9381 79.0439L66.8944 79.3361C67.0198 78.9259 67.2075 78.625 67.4438 78.4089L66.7687 77.6711ZM65.9381 79.0439C65.7747 79.5784 65.6963 80.162 65.6963 80.79H66.6963C66.6963 80.2447 66.7644 79.7616 66.8944 79.3361L65.9381 79.0439ZM65.6963 80.79C65.6963 81.3716 65.7681 81.935 65.9131 82.4788L66.8794 82.2212C66.7577 81.765 66.6963 81.2884 66.6963 80.79H65.6963ZM65.9136 82.4805C66.0662 83.0451 66.3286 83.5295 66.7127 83.9136L67.4198 83.2064C67.1772 82.9638 66.993 82.6416 66.8789 82.2195L65.9136 82.4805ZM66.7127 83.9136C67.1407 84.3416 67.7098 84.53 68.3563 84.53V83.53C67.9093 83.53 67.6184 83.4051 67.4198 83.2064L66.7127 83.9136Z" fill="black"/>
<rect x="2.25" y="0.25" width="3.5" height="62.5" fill="#1BD3EB" stroke="black" stroke-width="0.5"/>
<rect x="58.25" y="15.25" width="5.5" height="41.5" fill="#1BD3EB" stroke="black" stroke-width="0.5"/>
<rect x="50.25" y="21.25" width="5.5" height="35.5" fill="#1BD3EB" stroke="black" stroke-width="0.5"/>
<rect x="42.25" y="30.25" width="5.5" height="26.5" fill="#1BD3EB" stroke="black" stroke-width="0.5"/>
<rect x="34.25" y="38.25" width="5.5" height="18.5" fill="#1BD3EB" stroke="black" stroke-width="0.5"/>
<rect x="26.25" y="44.25" width="5.5" height="12.5" fill="#1BD3EB" stroke="black" stroke-width="0.5"/>
<rect x="18.25" y="48.25" width="5.5" height="8.5" fill="#1BD3EB" stroke="black" stroke-width="0.5"/>
<rect x="10.25" y="52.25" width="5.5" height="4.5" fill="#1BD3EB" stroke="black" stroke-width="0.5"/>
<rect x="2" y="61" width="73" height="4" fill="#1BD3EB"/>
<line x1="6" y1="60.75" x2="75" y2="60.75" stroke="black" stroke-width="0.5"/>
<line x1="2" y1="64.75" x2="75" y2="64.75" stroke="black" stroke-width="0.5"/>
<line x1="2.25" y1="61" x2="2.25" y2="65" stroke="black" stroke-width="0.5"/>
<line x1="74.75" y1="65" x2="74.75" y2="61" stroke="black" stroke-width="0.5"/>
</svg>
